<svg width="17" height="25" viewBox="0 0 17 25" fill="none" xmlns="http://www.w3.org/2000/svg">
<path d="M3.06992 8.552C3.40592 8.512 3.78992 8.536 4.22192 8.624C4.58992 8.704 4.89792 8.848 5.14592 9.056C5.51392 9.376 5.68192 9.796 5.64992 10.316C5.64192 10.516 5.59392 10.708 5.50592 10.892C5.39392 11.132 5.21792 11.34 4.97792 11.516C4.25792 12.052 3.82192 12.676 3.66992 13.388C3.65392 13.484 3.64192 13.676 3.63392 13.964C3.63392 14.268 3.62992 14.428 3.62192 14.444C3.54992 14.5 3.45392 14.528 3.33392 14.528C3.14992 14.528 3.05392 14.508 3.04592 14.468C3.01392 14.42 3.01392 14.064 3.04592 13.4C3.14192 12.512 3.47392 11.748 4.04192 11.108C4.15392 10.98 4.23392 10.856 4.28192 10.736C4.33792 10.592 4.36192 10.38 4.35392 10.1C4.35392 9.692 4.30592 9.44 4.20992 9.344C4.12192 9.248 3.97792 9.176 3.77792 9.128C3.55392 9.096 3.31792 9.092 3.06992 9.116C3.05392 9.124 3.03792 9.128 3.02192 9.128C2.75792 9.184 2.52192 9.292 2.31392 9.452C2.22592 9.516 2.20192 9.548 2.24192 9.548L2.36192 9.596C2.61792 9.716 2.74192 9.928 2.73392 10.232C2.73392 10.352 2.70192 10.468 2.63792 10.58C2.51792 10.804 2.31792 10.916 2.03792 10.916C1.73392 10.916 1.52592 10.8 1.41392 10.568C1.35792 10.456 1.32992 10.316 1.32992 10.148C1.34592 9.852 1.44592 9.576 1.62992 9.32C1.77392 9.136 1.91792 9 2.06192 8.912C2.36592 8.712 2.70192 8.592 3.06992 8.552ZM3.15392 15.452C3.43392 15.388 3.67792 15.456 3.88592 15.656C4.03792 15.824 4.11392 16.008 4.11392 16.208C4.11392 16.336 4.08592 16.456 4.02992 16.568C3.88592 16.84 3.64992 16.984 3.32192 17C3.01792 17 2.78992 16.864 2.63792 16.592C2.57392 16.472 2.54192 16.344 2.54192 16.208C2.54192 16.088 2.56992 15.972 2.62592 15.86C2.72992 15.636 2.90592 15.5 3.15392 15.452Z" fill="white"/>
<path d="M13.0699 8.552C13.4059 8.512 13.7899 8.536 14.2219 8.624C14.5899 8.704 14.8979 8.848 15.1459 9.056C15.5139 9.376 15.6819 9.796 15.6499 10.316C15.6419 10.516 15.5939 10.708 15.5059 10.892C15.3939 11.132 15.2179 11.34 14.9779 11.516C14.2579 12.052 13.8219 12.676 13.6699 13.388C13.6539 13.484 13.6419 13.676 13.6339 13.964C13.6339 14.268 13.6299 14.428 13.6219 14.444C13.5499 14.5 13.4539 14.528 13.3339 14.528C13.1499 14.528 13.0539 14.508 13.0459 14.468C13.0139 14.42 13.0139 14.064 13.0459 13.4C13.1419 12.512 13.4739 11.748 14.0419 11.108C14.1539 10.98 14.2339 10.856 14.2819 10.736C14.3379 10.592 14.3619 10.38 14.3539 10.1C14.3539 9.692 14.3059 9.44 14.2099 9.344C14.1219 9.248 13.9779 9.176 13.7779 9.128C13.5539 9.096 13.3179 9.092 13.0699 9.116C13.0539 9.124 13.0379 9.128 13.0219 9.128C12.7579 9.184 12.5219 9.292 12.3139 9.452C12.2259 9.516 12.2019 9.548 12.2419 9.548L12.3619 9.596C12.6179 9.716 12.7419 9.928 12.7339 10.232C12.7339 10.352 12.7019 10.468 12.6379 10.58C12.5179 10.804 12.3179 10.916 12.0379 10.916C11.7339 10.916 11.5259 10.8 11.4139 10.568C11.3579 10.456 11.3299 10.316 11.3299 10.148C11.3459 9.852 11.4459 9.576 11.6299 9.32C11.7739 9.136 11.9179 9 12.0619 8.912C12.3659 8.712 12.7019 8.592 13.0699 8.552ZM13.1539 15.452C13.4339 15.388 13.6779 15.456 13.8859 15.656C14.0379 15.824 14.1139 16.008 14.1139 16.208C14.1139 16.336 14.0859 16.456 14.0299 16.568C13.8859 16.84 13.6499 16.984 13.3219 17C13.0179 17 12.7899 16.864 12.6379 16.592C12.5739 16.472 12.5419 16.344 12.5419 16.208C12.5419 16.088 12.5699 15.972 12.6259 15.86C12.7299 15.636 12.9059 15.5 13.1539 15.452Z" fill="white"/>
<path d="M8.06992 1.552C8.40592 1.512 8.78992 1.536 9.22192 1.624C9.58992 1.704 9.89792 1.848 10.1459 2.056C10.5139 2.376 10.6819 2.796 10.6499 3.316C10.6419 3.516 10.5939 3.708 10.5059 3.892C10.3939 4.132 10.2179 4.34 9.97792 4.516C9.25792 5.052 8.82192 5.676 8.66992 6.388C8.65392 6.484 8.64192 6.676 8.63392 6.964C8.63392 7.268 8.62992 7.428 8.62192 7.444C8.54992 7.5 8.45392 7.528 8.33392 7.528C8.14992 7.528 8.05392 7.508 8.04592 7.468C8.01392 7.42 8.01392 7.064 8.04592 6.4C8.14192 5.512 8.47392 4.748 9.04192 4.108C9.15392 3.98 9.23392 3.856 9.28192 3.736C9.33792 3.592 9.36192 3.38 9.35392 3.1C9.35392 2.692 9.30592 2.44 9.20992 2.344C9.12192 2.248 8.97792 2.176 8.77792 2.128C8.55392 2.096 8.31792 2.092 8.06992 2.116C8.05392 2.124 8.03792 2.128 8.02192 2.128C7.75792 2.184 7.52192 2.292 7.31392 2.452C7.22592 2.516 7.20192 2.548 7.24192 2.548L7.36192 2.596C7.61792 2.716 7.74192 2.928 7.73392 3.232C7.73392 3.352 7.70192 3.468 7.63792 3.58C7.51792 3.804 7.31792 3.916 7.03792 3.916C6.73392 3.916 6.52592 3.8 6.41392 3.568C6.35792 3.456 6.32992 3.316 6.32992 3.148C6.34592 2.852 6.44592 2.576 6.62992 2.32C6.77392 2.136 6.91792 2 7.06192 1.912C7.36592 1.712 7.70192 1.592 8.06992 1.552ZM8.15392 8.452C8.43392 8.388 8.67792 8.456 8.88592 8.656C9.03792 8.824 9.11392 9.008 9.11392 9.208C9.11392 9.336 9.08592 9.456 9.02992 9.568C8.88592 9.84 8.64992 9.984 8.32192 10C8.01792 10 7.78992 9.864 7.63792 9.592C7.57392 9.472 7.54192 9.344 7.54192 9.208C7.54192 9.088 7.56992 8.972 7.62592 8.86C7.72992 8.636 7.90592 8.5 8.15392 8.452Z" fill="white"/>
<path d="M8.06992 12.552C8.40592 12.512 8.78992 12.536 9.22192 12.624C9.58992 12.704 9.89792 12.848 10.1459 13.056C10.5139 13.376 10.6819 13.796 10.6499 14.316C10.6419 14.516 10.5939 14.708 10.5059 14.892C10.3939 15.132 10.2179 15.34 9.97792 15.516C9.25792 16.052 8.82192 16.676 8.66992 17.388C8.65392 17.484 8.64192 17.676 8.63392 17.964C8.63392 18.268 8.62992 18.428 8.62192 18.444C8.54992 18.5 8.45392 18.528 8.33392 18.528C8.14992 18.528 8.05392 18.508 8.04592 18.468C8.01392 18.42 8.01392 18.064 8.04592 17.4C8.14192 16.512 8.47392 15.748 9.04192 15.108C9.15392 14.98 9.23392 14.856 9.28192 14.736C9.33792 14.592 9.36192 14.38 9.35392 14.1C9.35392 13.692 9.30592 13.44 9.20992 13.344C9.12192 13.248 8.97792 13.176 8.77792 13.128C8.55392 13.096 8.31792 13.092 8.06992 13.116C8.05392 13.124 8.03792 13.128 8.02192 13.128C7.75792 13.184 7.52192 13.292 7.31392 13.452C7.22592 13.516 7.20192 13.548 7.24192 13.548L7.36192 13.596C7.61792 13.716 7.74192 13.928 7.73392 14.232C7.73392 14.352 7.70192 14.468 7.63792 14.58C7.51792 14.804 7.31792 14.916 7.03792 14.916C6.73392 14.916 6.52592 14.8 6.41392 14.568C6.35792 14.456 6.32992 14.316 6.32992 14.148C6.34592 13.852 6.44592 13.576 6.62992 13.32C6.77392 13.136 6.91792 13 7.06192 12.912C7.36592 12.712 7.70192 12.592 8.06992 12.552ZM8.15392 19.452C8.43392 19.388 8.67792 19.456 8.88592 19.656C9.03792 19.824 9.11392 20.008 9.11392 20.208C9.11392 20.336 9.08592 20.456 9.02992 20.568C8.88592 20.84 8.64992 20.984 8.32192 21C8.01792 21 7.78992 20.864 7.63792 20.592C7.57392 20.472 7.54192 20.344 7.54192 20.208C7.54192 20.088 7.56992 19.972 7.62592 19.86C7.72992 19.636 7.90592 19.5 8.15392 19.452Z" fill="white"/>
</svg>
