<svg width="102" height="25" viewBox="0 0 102 25" fill="none" xmlns="http://www.w3.org/2000/svg">
<path d="M3.06992 8.552C3.40592 8.512 3.78992 8.536 4.22192 8.624C4.58992 8.704 4.89792 8.848 5.14592 9.056C5.51392 9.376 5.68192 9.796 5.64992 10.316C5.64192 10.516 5.59392 10.708 5.50592 10.892C5.39392 11.132 5.21792 11.34 4.97792 11.516C4.25792 12.052 3.82192 12.676 3.66992 13.388C3.65392 13.484 3.64192 13.676 3.63392 13.964C3.63392 14.268 3.62992 14.428 3.62192 14.444C3.54992 14.5 3.45392 14.528 3.33392 14.528C3.14992 14.528 3.05392 14.508 3.04592 14.468C3.01392 14.42 3.01392 14.064 3.04592 13.4C3.14192 12.512 3.47392 11.748 4.04192 11.108C4.15392 10.98 4.23392 10.856 4.28192 10.736C4.33792 10.592 4.36192 10.38 4.35392 10.1C4.35392 9.692 4.30592 9.44 4.20992 9.344C4.12192 9.248 3.97792 9.176 3.77792 9.128C3.55392 9.096 3.31792 9.092 3.06992 9.116C3.05392 9.124 3.03792 9.128 3.02192 9.128C2.75792 9.184 2.52192 9.292 2.31392 9.452C2.22592 9.516 2.20192 9.548 2.24192 9.548L2.36192 9.596C2.61792 9.716 2.74192 9.928 2.73392 10.232C2.73392 10.352 2.70192 10.468 2.63792 10.58C2.51792 10.804 2.31792 10.916 2.03792 10.916C1.73392 10.916 1.52592 10.8 1.41392 10.568C1.35792 10.456 1.32992 10.316 1.32992 10.148C1.34592 9.852 1.44592 9.576 1.62992 9.32C1.77392 9.136 1.91792 9 2.06192 8.912C2.36592 8.712 2.70192 8.592 3.06992 8.552ZM3.15392 15.452C3.43392 15.388 3.67792 15.456 3.88592 15.656C4.03792 15.824 4.11392 16.008 4.11392 16.208C4.11392 16.336 4.08592 16.456 4.02992 16.568C3.88592 16.84 3.64992 16.984 3.32192 17C3.01792 17 2.78992 16.864 2.63792 16.592C2.57392 16.472 2.54192 16.344 2.54192 16.208C2.54192 16.088 2.56992 15.972 2.62592 15.86C2.72992 15.636 2.90592 15.5 3.15392 15.452Z" fill="white"/>
<path d="M13.0699 8.552C13.4059 8.512 13.7899 8.536 14.2219 8.624C14.5899 8.704 14.8979 8.848 15.1459 9.056C15.5139 9.376 15.6819 9.796 15.6499 10.316C15.6419 10.516 15.5939 10.708 15.5059 10.892C15.3939 11.132 15.2179 11.34 14.9779 11.516C14.2579 12.052 13.8219 12.676 13.6699 13.388C13.6539 13.484 13.6419 13.676 13.6339 13.964C13.6339 14.268 13.6299 14.428 13.6219 14.444C13.5499 14.5 13.4539 14.528 13.3339 14.528C13.1499 14.528 13.0539 14.508 13.0459 14.468C13.0139 14.42 13.0139 14.064 13.0459 13.4C13.1419 12.512 13.4739 11.748 14.0419 11.108C14.1539 10.98 14.2339 10.856 14.2819 10.736C14.3379 10.592 14.3619 10.38 14.3539 10.1C14.3539 9.692 14.3059 9.44 14.2099 9.344C14.1219 9.248 13.9779 9.176 13.7779 9.128C13.5539 9.096 13.3179 9.092 13.0699 9.116C13.0539 9.124 13.0379 9.128 13.0219 9.128C12.7579 9.184 12.5219 9.292 12.3139 9.452C12.2259 9.516 12.2019 9.548 12.2419 9.548L12.3619 9.596C12.6179 9.716 12.7419 9.928 12.7339 10.232C12.7339 10.352 12.7019 10.468 12.6379 10.58C12.5179 10.804 12.3179 10.916 12.0379 10.916C11.7339 10.916 11.5259 10.8 11.4139 10.568C11.3579 10.456 11.3299 10.316 11.3299 10.148C11.3459 9.852 11.4459 9.576 11.6299 9.32C11.7739 9.136 11.9179 9 12.0619 8.912C12.3659 8.712 12.7019 8.592 13.0699 8.552ZM13.1539 15.452C13.4339 15.388 13.6779 15.456 13.8859 15.656C14.0379 15.824 14.1139 16.008 14.1139 16.208C14.1139 16.336 14.0859 16.456 14.0299 16.568C13.8859 16.84 13.6499 16.984 13.3219 17C13.0179 17 12.7899 16.864 12.6379 16.592C12.5739 16.472 12.5419 16.344 12.5419 16.208C12.5419 16.088 12.5699 15.972 12.6259 15.86C12.7299 15.636 12.9059 15.5 13.1539 15.452Z" fill="white"/>
<path d="M8.06992 1.552C8.40592 1.512 8.78992 1.536 9.22192 1.624C9.58992 1.704 9.89792 1.848 10.1459 2.056C10.5139 2.376 10.6819 2.796 10.6499 3.316C10.6419 3.516 10.5939 3.708 10.5059 3.892C10.3939 4.132 10.2179 4.34 9.97792 4.516C9.25792 5.052 8.82192 5.676 8.66992 6.388C8.65392 6.484 8.64192 6.676 8.63392 6.964C8.63392 7.268 8.62992 7.428 8.62192 7.444C8.54992 7.5 8.45392 7.528 8.33392 7.528C8.14992 7.528 8.05392 7.508 8.04592 7.468C8.01392 7.42 8.01392 7.064 8.04592 6.4C8.14192 5.512 8.47392 4.748 9.04192 4.108C9.15392 3.98 9.23392 3.856 9.28192 3.736C9.33792 3.592 9.36192 3.38 9.35392 3.1C9.35392 2.692 9.30592 2.44 9.20992 2.344C9.12192 2.248 8.97792 2.176 8.77792 2.128C8.55392 2.096 8.31792 2.092 8.06992 2.116C8.05392 2.124 8.03792 2.128 8.02192 2.128C7.75792 2.184 7.52192 2.292 7.31392 2.452C7.22592 2.516 7.20192 2.548 7.24192 2.548L7.36192 2.596C7.61792 2.716 7.74192 2.928 7.73392 3.232C7.73392 3.352 7.70192 3.468 7.63792 3.58C7.51792 3.804 7.31792 3.916 7.03792 3.916C6.73392 3.916 6.52592 3.8 6.41392 3.568C6.35792 3.456 6.32992 3.316 6.32992 3.148C6.34592 2.852 6.44592 2.576 6.62992 2.32C6.77392 2.136 6.91792 2 7.06192 1.912C7.36592 1.712 7.70192 1.592 8.06992 1.552ZM8.15392 8.452C8.43392 8.388 8.67792 8.456 8.88592 8.656C9.03792 8.824 9.11392 9.008 9.11392 9.208C9.11392 9.336 9.08592 9.456 9.02992 9.568C8.88592 9.84 8.64992 9.984 8.32192 10C8.01792 10 7.78992 9.864 7.63792 9.592C7.57392 9.472 7.54192 9.344 7.54192 9.208C7.54192 9.088 7.56992 8.972 7.62592 8.86C7.72992 8.636 7.90592 8.5 8.15392 8.452Z" fill="white"/>
<path d="M8.06992 12.552C8.40592 12.512 8.78992 12.536 9.22192 12.624C9.58992 12.704 9.89792 12.848 10.1459 13.056C10.5139 13.376 10.6819 13.796 10.6499 14.316C10.6419 14.516 10.5939 14.708 10.5059 14.892C10.3939 15.132 10.2179 15.34 9.97792 15.516C9.25792 16.052 8.82192 16.676 8.66992 17.388C8.65392 17.484 8.64192 17.676 8.63392 17.964C8.63392 18.268 8.62992 18.428 8.62192 18.444C8.54992 18.5 8.45392 18.528 8.33392 18.528C8.14992 18.528 8.05392 18.508 8.04592 18.468C8.01392 18.42 8.01392 18.064 8.04592 17.4C8.14192 16.512 8.47392 15.748 9.04192 15.108C9.15392 14.98 9.23392 14.856 9.28192 14.736C9.33792 14.592 9.36192 14.38 9.35392 14.1C9.35392 13.692 9.30592 13.44 9.20992 13.344C9.12192 13.248 8.97792 13.176 8.77792 13.128C8.55392 13.096 8.31792 13.092 8.06992 13.116C8.05392 13.124 8.03792 13.128 8.02192 13.128C7.75792 13.184 7.52192 13.292 7.31392 13.452C7.22592 13.516 7.20192 13.548 7.24192 13.548L7.36192 13.596C7.61792 13.716 7.74192 13.928 7.73392 14.232C7.73392 14.352 7.70192 14.468 7.63792 14.58C7.51792 14.804 7.31792 14.916 7.03792 14.916C6.73392 14.916 6.52592 14.8 6.41392 14.568C6.35792 14.456 6.32992 14.316 6.32992 14.148C6.34592 13.852 6.44592 13.576 6.62992 13.32C6.77392 13.136 6.91792 13 7.06192 12.912C7.36592 12.712 7.70192 12.592 8.06992 12.552ZM8.15392 19.452C8.43392 19.388 8.67792 19.456 8.88592 19.656C9.03792 19.824 9.11392 20.008 9.11392 20.208C9.11392 20.336 9.08592 20.456 9.02992 20.568C8.88592 20.84 8.64992 20.984 8.32192 21C8.01792 21 7.78992 20.864 7.63792 20.592C7.57392 20.472 7.54192 20.344 7.54192 20.208C7.54192 20.088 7.56992 19.972 7.62592 19.86C7.72992 19.636 7.90592 19.5 8.15392 19.452Z" fill="white"/>
<path d="M26.2517 14.184V15H23.8757V14.184H24.5237L22.4717 10.884L21.1997 11.664V14.184H21.9797V15H19.4597V14.184H20.2157V6.816H19.4597V6H23.7437C24.2717 6 24.6277 6.104 24.8117 6.312C24.9957 6.512 25.0877 6.908 25.0877 7.5V8.244C25.0877 8.548 25.0597 8.788 25.0037 8.964C24.9477 9.14 24.8477 9.3 24.7037 9.444C24.5597 9.58 24.3677 9.72 24.1277 9.864C23.8877 10.008 23.5837 10.192 23.2157 10.416L25.5797 14.184H26.2517ZM21.1997 10.704L24.2117 8.844V6.816H21.1997V10.704ZM28.7775 14.184H29.5575V15H27.0375V14.184H27.7935V9.816H27.0375V9H28.7775V14.184ZM28.2855 6.792C28.4535 6.792 28.5935 6.856 28.7055 6.984C28.8255 7.104 28.8855 7.252 28.8855 7.428C28.8855 7.596 28.8255 7.74 28.7055 7.86C28.5935 7.972 28.4495 8.028 28.2735 8.028C28.1055 8.028 27.9615 7.972 27.8415 7.86C27.7295 7.74 27.6735 7.596 27.6735 7.428C27.6735 7.252 27.7335 7.104 27.8535 6.984C27.9735 6.856 28.1175 6.792 28.2855 6.792ZM35.8792 14.172V15H34.1392V13.62L32.0632 14.928C31.8152 15.056 31.5792 15.12 31.3552 15.12C31.1392 15.12 30.9632 15.04 30.8272 14.88C30.6992 14.72 30.6352 14.536 30.6352 14.328V10.128C30.6352 9.76 30.6912 9.508 30.8032 9.372C30.9952 9.124 31.2992 9 31.7152 9H34.1392V6.816H33.3472V6H35.1232V14.172H35.8792ZM34.1392 9.816H31.5952V14.244L34.1392 12.66V9.816ZM42.2073 14.172V15H40.4673V13.62L38.3913 14.928C38.1433 15.056 37.9073 15.12 37.6833 15.12C37.4673 15.12 37.2913 15.04 37.1553 14.88C37.0273 14.72 36.9633 14.536 36.9633 14.328V10.128C36.9633 9.76 37.0193 9.508 37.1313 9.372C37.3233 9.124 37.6273 9 38.0433 9H40.4673V6.816H39.6753V6H41.4513V14.172H42.2073ZM40.4673 9.816H37.9233V14.244L40.4673 12.66V9.816ZM45.0314 14.184H45.8114V15H43.2914V14.184H44.0474V6.816H43.2914V6H45.0314V14.184ZM47.0063 10.176C47.0063 9.384 47.4183 8.988 48.2423 8.988H50.2703C50.6623 8.988 50.9463 9.064 51.1223 9.216C51.2983 9.368 51.3863 9.648 51.3863 10.056V11.172L47.9663 13.332V14.184H50.4383V13.488H51.3863V14.124C51.3863 14.364 51.3103 14.572 51.1583 14.748C51.0143 14.916 50.7703 15 50.4263 15H47.9663C47.6223 15 47.3743 14.916 47.2223 14.748C47.0783 14.572 47.0063 14.364 47.0063 14.124V10.176ZM47.9663 12.36L50.4263 10.812V9.816H47.9663V12.36ZM56.9597 6.816V6H58.8077L61.3517 11.244L63.8717 6H65.7197V6.816H64.9637V14.184H65.7197V15H63.1997V14.184H63.9797V8.004L61.7117 12.672H60.9557L58.6997 7.968V14.184H59.4797V15H56.9597V14.184H57.7157V6.816H56.9597ZM67.1039 10.176C67.1039 9.384 67.5159 8.988 68.3399 8.988H70.3679C70.7599 8.988 71.0439 9.064 71.2199 9.216C71.3959 9.368 71.4839 9.648 71.4839 10.056V11.172L68.0639 13.332V14.184H70.5359V13.488H71.4839V14.124C71.4839 14.364 71.4079 14.572 71.2559 14.748C71.1119 14.916 70.8679 15 70.5239 15H68.0639C67.7199 15 67.4719 14.916 67.3199 14.748C67.1759 14.572 67.1039 14.364 67.1039 14.124V10.176ZM68.0639 12.36L70.5239 10.812V9.816H68.0639V12.36ZM78.1973 14.184H78.9533V6.816H77.4413V8.232H76.5773V6H82.3253V8.232H81.4493V6.816H79.9373V14.184H80.7173V15H78.1973V14.184ZM88.9649 14.184V15H86.6489V14.184H87.2249V9.744L84.8369 11.244V14.184H85.4249V15H83.1089V14.184H83.8649V6.816H83.1089V6H84.8369V10.272L86.8289 9.024C86.9809 8.928 87.1609 8.88 87.3689 8.88C87.5769 8.88 87.7649 8.964 87.9329 9.132C88.1089 9.292 88.1969 9.524 88.1969 9.828V14.184H88.9649ZM91.7892 14.184H92.5692V15H90.0492V14.184H90.8052V9.816H90.0492V9H91.7892V14.184ZM91.2972 6.792C91.4652 6.792 91.6052 6.856 91.7172 6.984C91.8372 7.104 91.8972 7.252 91.8972 7.428C91.8972 7.596 91.8372 7.74 91.7172 7.86C91.6052 7.972 91.4612 8.028 91.2852 8.028C91.1172 8.028 90.9732 7.972 90.8532 7.86C90.7412 7.74 90.6852 7.596 90.6852 7.428C90.6852 7.252 90.7452 7.104 90.8652 6.984C90.9852 6.856 91.1292 6.792 91.2972 6.792ZM97.7149 13.944C97.7149 14.648 97.3709 15 96.6829 15H93.7789V13.188H94.5949V14.184H96.7549V13.188L94.7869 11.952C94.5869 11.824 94.4149 11.72 94.2709 11.64C94.1269 11.56 94.0069 11.48 93.9109 11.4C93.7349 11.24 93.6469 11.024 93.6469 10.752V10.068C93.6469 9.732 93.7029 9.5 93.8149 9.372C94.0309 9.124 94.3509 9 94.7749 9H97.5709V10.8H96.7549V9.816H94.5949V10.824L96.6349 12.096C96.8029 12.2 96.9509 12.292 97.0789 12.372C97.2149 12.444 97.3269 12.52 97.4149 12.6C97.6149 12.768 97.7149 12.968 97.7149 13.2V13.944Z" fill="white"/>
</svg>
